<?xml version="1.0" encoding="UTF-8" standalone="no"?><!DOCTYPE svg PUBLIC "-//W3C//DTD SVG 1.1//EN" "http://www.w3.org/Graphics/SVG/1.1/DTD/svg11.dtd"><svg width="100%" height="100%" viewBox="0 0 434 434" version="1.1" xmlns="http://www.w3.org/2000/svg" xmlns:xlink="http://www.w3.org/1999/xlink" xml:space="preserve" xmlns:serif="http://www.serif.com/" style="fill-rule:evenodd;clip-rule:evenodd;stroke-linejoin:round;stroke-miterlimit:2;"><path d="M201.31,99.014l-0,68.484c-0,18.898 -15.343,34.242 -34.242,34.242l-68.484,-0c-18.899,-0 -34.242,-15.344 -34.242,-34.242l-0,-68.484c-0,-18.899 15.343,-34.243 34.242,-34.243l68.484,0c18.899,0 34.242,15.344 34.242,34.243Z" style="fill:#b556ff;"/><path d="M201.31,267.309l-0,68.484c-0,18.899 -15.343,34.242 -34.242,34.242l-68.484,0c-18.899,0 -34.242,-15.343 -34.242,-34.242l-0,-68.484c-0,-18.899 15.343,-34.242 34.242,-34.242l68.484,-0c18.899,-0 34.242,15.343 34.242,34.242Zm-22.811,3.659c0,-8.225 -6.678,-14.903 -14.904,-14.903l-61.183,-0c-8.225,-0 -14.903,6.678 -14.903,14.903l-0,61.183c-0,8.226 6.678,14.904 14.903,14.904l61.183,-0c8.226,-0 14.904,-6.678 14.904,-14.904l0,-61.183Z" style="fill:#b556ff;"/><path d="M368.009,267.309l0,68.484c0,18.899 -15.343,34.242 -34.242,34.242l-68.484,0c-18.899,0 -34.242,-15.343 -34.242,-34.242l-0,-68.484c-0,-18.899 15.343,-34.242 34.242,-34.242l68.484,-0c18.899,-0 34.242,15.343 34.242,34.242Z" style="fill:#00d2d0;"/><path d="M368.009,99.014l0,68.484c0,18.898 -15.343,34.242 -34.242,34.242l-68.484,-0c-18.899,-0 -34.242,-15.344 -34.242,-34.242l-0,-68.484c-0,-18.899 15.343,-34.243 34.242,-34.243l68.484,0c18.899,0 34.242,15.344 34.242,34.243Zm-22.989,3.65c0,-8.225 -6.678,-14.904 -14.903,-14.904l-61.184,0c-8.225,0 -14.903,6.679 -14.903,14.904l-0,61.183c-0,8.226 6.678,14.904 14.903,14.904l61.184,-0c8.225,-0 14.903,-6.678 14.903,-14.904l0,-61.183Z" style="fill:#00d2d0;"/></svg>