<?xml version="1.0" encoding="UTF-8" standalone="no"?><!DOCTYPE svg PUBLIC "-//W3C//DTD SVG 1.1//EN" "http://www.w3.org/Graphics/SVG/1.1/DTD/svg11.dtd"><svg width="100%" height="100%" viewBox="0 0 434 434" version="1.1" xmlns="http://www.w3.org/2000/svg" xmlns:xlink="http://www.w3.org/1999/xlink" xml:space="preserve" xmlns:serif="http://www.serif.com/" style="fill-rule:evenodd;clip-rule:evenodd;stroke-linejoin:round;stroke-miterlimit:2;"><path d="M196.509,60.779l0,90.602c0,25.002 -20.298,45.3 -45.301,45.3l-90.601,0c-25.002,0 -45.3,-20.298 -45.3,-45.3l-0,-90.602c-0,-25.002 20.298,-45.3 45.3,-45.3l90.601,-0c25.003,-0 45.301,20.298 45.301,45.3Z" style="fill:#b556ff;"/><path d="M196.509,283.426l0,90.601c0,25.002 -20.298,45.301 -45.301,45.301l-90.601,-0c-25.002,-0 -45.3,-20.299 -45.3,-45.301l-0,-90.601c-0,-25.002 20.298,-45.301 45.3,-45.301l90.601,0c25.003,0 45.301,20.299 45.301,45.301Zm-30.178,4.841c0,-10.882 -8.834,-19.717 -19.716,-19.717l-80.943,0c-10.882,0 -19.716,8.835 -19.716,19.717l-0,80.942c-0,10.882 8.834,19.717 19.716,19.717l80.943,0c10.882,0 19.716,-8.835 19.716,-19.717l0,-80.942Z" style="fill:#b556ff;"/><path d="M417.044,283.426l0,90.601c0,25.002 -20.298,45.301 -45.3,45.301l-90.602,-0c-25.002,-0 -45.3,-20.299 -45.3,-45.301l-0,-90.601c-0,-25.002 20.298,-45.301 45.3,-45.301l90.602,0c25.002,0 45.3,20.299 45.3,45.301Z" style="fill:#00d2d0;"/><path d="M417.044,60.779l0,90.602c0,25.002 -20.298,45.3 -45.3,45.3l-90.602,0c-25.002,0 -45.3,-20.298 -45.3,-45.3l-0,-90.602c-0,-25.002 20.298,-45.3 45.3,-45.3l90.602,-0c25.002,-0 45.3,20.298 45.3,45.3Zm-30.413,4.83c-0,-10.882 -8.835,-19.717 -19.717,-19.717l-80.942,0c-10.882,0 -19.717,8.835 -19.717,19.717l0,80.942c0,10.882 8.835,19.717 19.717,19.717l80.942,-0c10.882,-0 19.717,-8.835 19.717,-19.717l-0,-80.942Z" style="fill:#00d2d0;"/></svg>